<?xml version="1.0" encoding="utf-8"?>
<!-- Generator: Adobe Illustrator 18.1.0, SVG Export Plug-In . SVG Version: 6.00 Build 0)  -->
<!DOCTYPE svg PUBLIC "-//W3C//DTD SVG 1.1//EN" "http://www.w3.org/Graphics/SVG/1.1/DTD/svg11.dtd">
<svg version="1.1" id="Layer_1" xmlns="http://www.w3.org/2000/svg" xmlns:xlink="http://www.w3.org/1999/xlink" x="0px" y="0px"
	 viewBox="0 0 256 256" style="enable-background:new 0 0 256 256;" xml:space="preserve">
<path style="fill:#4F9AD4;" d="M41.5,108.9c0,0-1.8-4.4-1.8-9.7s1.8-9.7,1.8-9.7l0,0l0,0h0c-0.3,0-36.7,9.7-36.7,9.7
	S41.2,108.9,41.5,108.9L41.5,108.9z"/>
<path style="fill:#4F9AD4;" d="M214.1,89.4c0,0,1.8,4.4,1.8,9.7s-1.8,9.7-1.8,9.7l0,0l0,0h0c0.3,0,36.7-9.7,36.7-9.7
	S214.4,89.4,214.1,89.4L214.1,89.4z"/>
<circle style="fill:#4F9AD4;" cx="90.1" cy="98.6" r="11"/>
<path style="fill:#4F9AD4;" d="M195,85c1.4,0,2.6,1.2,2.6,2.6v23.2c0,1.4-1.2,2.6-2.6,2.6H60.6c-1.4,0-2.6-1.2-2.6-2.6V87.5
	c0-1.4,1.2-2.6,2.6-2.6H195 M195,71.8H60.6c-8.7,0-15.8,7.1-15.8,15.8v23.2c0,8.7,7.1,15.8,15.8,15.8H195c8.7,0,15.8-7.1,15.8-15.8
	V87.5C210.8,78.8,203.7,71.8,195,71.8L195,71.8z"/>
<path style="fill:#4F9AD4;" d="M126.8,166.1c-19.9,0-36.7,30.1-36.7,65.7c0,4.1,0.2,8,0.6,11.9c10.2,3.2,22.6,5.1,36.1,5.1
	s25.9-1.9,36.1-5.1c0.4-3.9,0.6-7.9,0.6-11.9C163.6,196.2,146.8,166.1,126.8,166.1z M104.7,230.3c0,2.4-1.9,4.3-4.3,4.3
	c-2.4,0-4.3-1.9-4.3-4.3v-15.1c0-2.4,1.9-4.3,4.3-4.3c2.4,0,4.3,1.9,4.3,4.3V230.3z M122.1,230.3c0,2.4-1.9,4.3-4.3,4.3
	s-4.3-1.9-4.3-4.3v-15.1c0-2.4,1.9-4.3,4.3-4.3c2.4,0,4.3,1.9,4.3,4.3V230.3z M139.6,230.3c0,2.4-1.9,4.3-4.3,4.3
	c-2.4,0-4.3-1.9-4.3-4.3v-15.1c0-2.4,1.9-4.3,4.3-4.3s4.3,1.9,4.3,4.3V230.3z M157,230.3c0,2.4-1.9,4.3-4.3,4.3
	c-2.4,0-4.3-1.9-4.3-4.3v-15.1c0-2.4,1.9-4.3,4.3-4.3c2.4,0,4.3,1.9,4.3,4.3V230.3z"/>
<path style="fill:#4F9AD4;" d="M64.2,115.2v11.3H155c1.7,0,3.1,1.4,3.1,3.1c0,1.7-1.4,3.1-3.1,3.1H64.2v88.3
	c0,7.5,6.7,14.3,17.5,19.3c-0.2-2.8-0.3-5.6-0.3-8.4c0-41.7,20-74.4,45.4-74.4c25.5,0,45.4,32.7,45.4,74.4c0,2.9-0.1,5.7-0.3,8.4
	c10.8-5,17.5-11.8,17.5-19.3V115.2H64.2z"/>
<path style="fill:#4F9AD4;" d="M126.8,58.4c-2.2,0-4-1.8-4-4s1.8-4,4-4H189c-0.7-2.2-1.5-4.3-2.4-6.4h-36.9c-3.6,0-6.6-3-6.6-6.6
	c0-3.6,3-6.6,6.6-6.6h29.3c-12-16.1-30.8-26.3-52.1-26.3c-33.3,0-60.8,24.9-65,58.8h129.9c-0.2-1.7-0.5-3.4-0.8-5L126.8,58.4
	L126.8,58.4z M131.4,30.6c3.8,0,6.9,3.1,6.9,6.9c0,3.8-3.1,6.9-6.9,6.9c-3.8,0-6.9-3.1-6.9-6.9C124.5,33.6,127.6,30.6,131.4,30.6z"
	/>
<g>
</g>
<g>
</g>
<g>
</g>
<g>
</g>
<g>
</g>
<g>
</g>
</svg>
